<mxfile host="app.diagrams.net" modified="2024-05-19T04:25:39.963Z" agent="Mozilla/5.0 (Windows NT 10.0; Win64; x64) AppleWebKit/537.36 (KHTML, like Gecko) Chrome/125.0.0.0 Safari/537.36" etag="IX6Xxz1EeoZhG16n6WV6" version="24.4.4" type="google">
  <diagram name="Page-1" id="e7e014a7-5840-1c2e-5031-d8a46d1fe8dd">
    <mxGraphModel grid="1" page="1" gridSize="10" guides="1" tooltips="1" connect="1" arrows="1" fold="1" pageScale="1" pageWidth="1169" pageHeight="826" background="none" math="0" shadow="0">
      <root>
        <mxCell id="0" />
        <mxCell id="1" parent="0" />
        <mxCell id="2" value="販売管理者/ 販売担当/購入ユーザー" style="swimlane;whiteSpace=wrap" vertex="1" parent="1">
          <mxGeometry x="161.5" y="39" width="280" height="841" as="geometry" />
        </mxCell>
        <mxCell id="xy8zagtA-tzxflyjEH4M-19" value="" style="ellipse;shape=startState;fillColor=#000000;strokeColor=none;" vertex="1" parent="2">
          <mxGeometry x="125" y="51" width="30" height="30" as="geometry" />
        </mxCell>
        <mxCell id="xy8zagtA-tzxflyjEH4M-20" value="&lt;span style=&quot;font-size: 11px;&quot;&gt;商品をクリック&lt;/span&gt;" style="rounded=1;whiteSpace=wrap;html=1;arcSize=40;" vertex="1" parent="2">
          <mxGeometry x="78.5" y="121" width="120" height="40" as="geometry" />
        </mxCell>
        <mxCell id="3" value="ECサイト画面" style="swimlane;whiteSpace=wrap;startSize=23;" vertex="1" parent="1">
          <mxGeometry x="441.5" y="39" width="280" height="841" as="geometry" />
        </mxCell>
        <mxCell id="WvElCNo4vnSuFBghOQTC-68" value="&lt;span style=&quot;font-size: 11px;&quot;&gt;商品をクリック&lt;/span&gt;" style="rounded=1;whiteSpace=wrap;html=1;arcSize=40;" vertex="1" parent="3">
          <mxGeometry x="-191.5" y="331" width="120" height="40" as="geometry" />
        </mxCell>
        <mxCell id="G1xjdAS6aRRkrifjdTjM-7" value="" style="edgeStyle=orthogonalEdgeStyle;rounded=0;orthogonalLoop=1;jettySize=auto;html=1;" edge="1" parent="3" source="JWLb-32_a0x0ovrGCaO_-7" target="WvElCNo4vnSuFBghOQTC-93">
          <mxGeometry relative="1" as="geometry" />
        </mxCell>
        <mxCell id="JWLb-32_a0x0ovrGCaO_-7" value="&lt;font style=&quot;font-size: 10px;&quot;&gt;商品の詳細画面を表示&lt;/font&gt;" style="rounded=1;whiteSpace=wrap;html=1;arcSize=40;" vertex="1" parent="3">
          <mxGeometry x="88.5" y="411" width="120" height="40" as="geometry" />
        </mxCell>
        <mxCell id="WvElCNo4vnSuFBghOQTC-67" value="&lt;font style=&quot;font-size: 11px;&quot;&gt;商品の一覧画面を表示&lt;/font&gt;" style="rounded=1;whiteSpace=wrap;html=1;arcSize=40;" vertex="1" parent="3">
          <mxGeometry x="88.5" y="331" width="120" height="40" as="geometry" />
        </mxCell>
        <mxCell id="5" value="" style="ellipse;shape=startState;fillColor=#000000;strokeColor=none;" vertex="1" parent="3">
          <mxGeometry x="133.5" y="261" width="30" height="30" as="geometry" />
        </mxCell>
        <mxCell id="JYB0DX3dt4nBDQQkA7Uf-99" value="" style="edgeStyle=orthogonalEdgeStyle;rounded=0;orthogonalLoop=1;jettySize=auto;html=1;" edge="1" parent="3" source="5" target="WvElCNo4vnSuFBghOQTC-67">
          <mxGeometry relative="1" as="geometry">
            <mxPoint x="-131.5" y="331" as="targetPoint" />
          </mxGeometry>
        </mxCell>
        <mxCell id="WvElCNo4vnSuFBghOQTC-93" value="" style="ellipse;html=1;shape=endState;fillColor=#000000;strokeColor=default;" vertex="1" parent="3">
          <mxGeometry x="133" y="491" width="30" height="30" as="geometry" />
        </mxCell>
        <mxCell id="JWLb-32_a0x0ovrGCaO_-30" style="edgeStyle=orthogonalEdgeStyle;rounded=0;orthogonalLoop=1;jettySize=auto;html=1;entryX=1;entryY=0.5;entryDx=0;entryDy=0;" edge="1" parent="3" source="WvElCNo4vnSuFBghOQTC-67" target="WvElCNo4vnSuFBghOQTC-68">
          <mxGeometry relative="1" as="geometry" />
        </mxCell>
        <mxCell id="G1xjdAS6aRRkrifjdTjM-5" style="edgeStyle=orthogonalEdgeStyle;rounded=0;orthogonalLoop=1;jettySize=auto;html=1;entryX=0;entryY=0.5;entryDx=0;entryDy=0;" edge="1" parent="3" source="WvElCNo4vnSuFBghOQTC-68" target="JWLb-32_a0x0ovrGCaO_-7">
          <mxGeometry relative="1" as="geometry">
            <Array as="points">
              <mxPoint x="-131" y="431" />
            </Array>
          </mxGeometry>
        </mxCell>
        <mxCell id="xy8zagtA-tzxflyjEH4M-5" value="システム" style="swimlane;whiteSpace=wrap;startSize=23;" vertex="1" parent="1">
          <mxGeometry x="721.5" y="39" width="280" height="841" as="geometry" />
        </mxCell>
        <mxCell id="xy8zagtA-tzxflyjEH4M-12" value="システム" style="swimlane;whiteSpace=wrap;startSize=23;" vertex="1" parent="1">
          <mxGeometry x="1001.5" y="39" width="280" height="841" as="geometry" />
        </mxCell>
      </root>
    </mxGraphModel>
  </diagram>
</mxfile>
